<svg viewBox="0 0 129 129" fill="none" xmlns="http://www.w3.org/2000/svg">
  <rect
    x="0.833008"
    y="0.573242"
    width="128"
    height="128"
    rx="64"
    fill="#FFDBD1"
  />
  <path
    d="M45.2072 23.4661C45.2072 20.2116 47.8455 17.5732 51.1001 17.5732H66.8144C70.0689 17.5732 72.7073 20.2116 72.7073 23.4661C72.7073 26.7207 70.0689 29.359 66.8144 29.359H51.1001C47.8455 29.359 45.2072 26.7207 45.2072 23.4661Z"
    fill="#3A0A00"
  />
  <path
    d="M17.333 57.8879C17.333 54.6334 19.9713 51.9951 23.2259 51.9951H54.2804C57.5349 51.9951 60.1732 54.6334 60.1732 57.8879C60.1732 61.1425 57.5349 63.7808 54.2804 63.7808H23.2259C19.9713 63.7808 17.333 61.1425 17.333 57.8879Z"
    fill="#3A0A00"
  />
  <path
    d="M23.5065 40.677C23.5065 37.4225 26.1448 34.7842 29.3994 34.7842H60.4538C63.7084 34.7842 66.3467 37.4225 66.3467 40.677C66.3467 43.9316 63.7084 46.5699 60.4538 46.5699H29.3994C26.1448 46.5699 23.5065 43.9316 23.5065 40.677Z"
    fill="#3A0A00"
  />
  <path
    d="M18.6425 75.0989C18.6425 71.8443 21.2809 69.206 24.5354 69.206H47.9198C51.1743 69.206 53.8127 71.8443 53.8127 75.0989C53.8127 78.3534 51.1743 80.9917 47.9198 80.9917H24.5354C21.2809 80.9917 18.6425 78.3534 18.6425 75.0989Z"
    fill="#3A0A00"
  />
  <path
    d="M28.9317 92.3098C28.9317 89.0552 31.57 86.4169 34.8245 86.4169H41.7463C45.0009 86.4169 47.6392 89.0552 47.6392 92.3098C47.6392 95.5643 45.0009 98.2027 41.7463 98.2027H34.8245C31.57 98.2027 28.9317 95.5643 28.9317 92.3098Z"
    fill="#3A0A00"
  />
  <path
    d="M86.9294 21.138C83.7295 19.4535 79.9409 21.2441 78.7041 24.6422L50.4234 102.343C49.1866 105.741 50.9378 109.548 54.4719 110.314C77.5126 115.311 101.278 102.645 109.567 79.8723C117.855 57.0994 107.791 32.1208 86.9294 21.138Z"
    fill="#3A0A00"
  />
  <style>
    path {
      fill: #ffdbd1;
    }
    rect {
      fill: #3a0a00;
    }
    @media (prefers-color-scheme: dark) {
      path {
        fill: #3a0a00;
      }
      rect {
        fill: #ffdbd1;
      }
    }
  </style>
</svg>
