<svg
  width="130"
  height="130"
  viewBox="0 0 130 130"
  fill="none"
  xmlns="http://www.w3.org/2000/svg"
>
  <rect width="130" height="130" rx="40" />
  <path
    d="M74.4005 22.7066C68.7088 20.2134 62.2598 20.0834 56.4722 22.3451C50.6846 24.6068 46.0325 29.075 43.5394 34.7668C42.6047 36.9005 40.1173 37.8725 37.9836 36.9379C35.8498 36.0033 34.8778 33.5158 35.8124 31.3821C39.2032 23.6411 45.5303 17.5641 53.4017 14.488C61.2731 11.4119 70.0441 11.5888 77.7851 14.9796C85.5262 18.3704 91.6031 24.6975 94.6792 32.5689C97.1138 38.7987 97.5107 45.592 95.8894 51.9922C98.0515 52.1738 99.7496 53.9861 99.7496 56.1951C99.7496 58.5246 97.8612 60.413 95.5317 60.413H34.4683C32.1388 60.413 30.2504 58.5246 30.2504 56.1951C30.2504 53.8657 32.1388 51.9773 34.4683 51.9773H87.0892L44.9123 51.9773C59.8326 48.3814 72.7067 39.536 81.4711 27.5049C79.4475 25.5045 77.0573 23.8703 74.4005 22.7066Z"
  />
  <path
    d="M60.0601 103.57C57.424 103.57 55.7257 106.364 56.9396 108.704L60.0415 114.684C62.1259 118.702 67.8741 118.702 69.9585 114.684L81.5899 92.2607C82.9028 89.7297 81.0712 86.7085 78.2234 86.6985H68.4959C66.1664 86.6985 64.278 84.8101 64.278 82.4806C64.278 80.1511 66.1664 78.2627 68.4959 78.2627H86.5806C89.1349 78.2581 91.2041 76.186 91.2041 73.6306C91.2041 71.0724 89.1302 68.9985 86.572 68.9985H42.6096C39.7536 68.9985 37.9137 72.0256 39.2288 74.5608L48.8347 93.0793C49.4896 94.3418 50.7933 95.1342 52.2155 95.1342H60.0601C62.3896 95.1342 64.278 97.0226 64.278 99.3521C64.278 101.682 62.3896 103.57 60.0601 103.57Z"
  />
  <style>
    path {
      fill: #ccedd2;
    }
    rect {
      fill: #1b1b1b;
    }
    @media (prefers-color-scheme: dark) {
      path {
        fill: #1b1b1b;
      }
      rect {
        fill: #ccedd2;
      }
    }
  </style>
</svg>
